<svg width="1039" height="1039" viewBox="0 0 1039 1039" fill="none" xmlns="http://www.w3.org/2000/svg">
<path d="M521.123 144.486H517.877C112.017 144.486 32.4688 287.348 32.4688 511.383L47.0797 663.986H993.544L1008.15 511.383C1006.53 287.348 926.983 144.486 521.123 144.486Z" fill="#2E1065"/>
<path d="M949.711 597.425C801.978 538.981 917.242 378.261 922.113 345.792C922.113 345.792 888.02 32.4688 519.5 32.4688C150.98 32.4688 116.887 345.792 116.887 345.792C121.758 378.261 238.645 538.981 89.289 597.425C89.289 597.425 34.0922 590.931 34.0922 657.492C34.0922 737.041 90.9125 724.053 90.9125 724.053C90.9125 845.811 211.047 1006.53 519.5 1006.53C827.953 1006.53 948.088 845.811 948.088 724.053C948.088 724.053 1004.91 737.041 1004.91 657.492C1004.91 590.931 949.711 597.425 949.711 597.425Z" fill="#FED0AC"/>
<path d="M660.739 858.799C663.986 858.799 665.609 844.188 665.609 837.694C665.609 795.484 600.672 759.769 519.5 759.769C438.328 759.769 373.391 797.108 373.391 839.317C373.391 844.188 375.014 858.799 376.638 858.799H660.739Z" fill="#2E1065"/>
<path d="M288.972 638.011L284.102 589.308C297.089 587.684 314.947 584.437 334.428 581.191C430.211 563.333 589.308 532.488 763.016 590.931L746.781 636.388C586.061 581.191 435.081 610.413 344.169 628.27C321.441 633.141 301.959 636.387 288.972 638.011Z" fill="#454749"/>
<path d="M319.817 761.392C400.511 761.392 465.927 695.977 465.927 615.283C465.927 534.589 400.511 469.173 319.817 469.173C239.123 469.173 173.708 534.589 173.708 615.283C173.708 695.977 239.123 761.392 319.817 761.392Z" fill="#454749"/>
<path d="M319.817 712.689C373.613 712.689 417.223 669.079 417.223 615.283C417.223 561.487 373.613 517.877 319.817 517.877C266.021 517.877 222.411 561.487 222.411 615.283C222.411 669.079 266.021 712.689 319.817 712.689Z" fill="#B4D7EE"/>
<path d="M719.183 761.392C799.877 761.392 865.292 695.977 865.292 615.283C865.292 534.589 799.877 469.173 719.183 469.173C638.489 469.173 573.073 534.589 573.073 615.283C573.073 695.977 638.489 761.392 719.183 761.392Z" fill="#454749"/>
<path d="M719.183 712.689C772.979 712.689 816.589 669.079 816.589 615.283C816.589 561.487 772.979 517.877 719.183 517.877C665.387 517.877 621.777 561.487 621.777 615.283C621.777 669.079 665.387 712.689 719.183 712.689Z" fill="#B4D7EE"/>
<path d="M323.443 168.636V285H302.193L251.568 211.761H250.716V285H226.114V168.636H247.705L297.932 241.818H298.955V168.636H323.443ZM383.088 286.705C374.111 286.705 366.384 284.886 359.906 281.25C353.467 277.576 348.505 272.386 345.02 265.682C341.535 258.939 339.793 250.966 339.793 241.761C339.793 232.784 341.535 224.905 345.02 218.125C348.505 211.345 353.41 206.061 359.736 202.273C366.099 198.485 373.562 196.591 382.122 196.591C387.88 196.591 393.24 197.519 398.202 199.375C403.202 201.193 407.558 203.939 411.27 207.614C415.02 211.288 417.937 215.909 420.02 221.477C422.103 227.008 423.145 233.485 423.145 240.909V247.557H349.452V232.557H400.361C400.361 229.072 399.603 225.985 398.088 223.295C396.573 220.606 394.471 218.504 391.781 216.989C389.13 215.436 386.043 214.659 382.52 214.659C378.846 214.659 375.588 215.511 372.747 217.216C369.944 218.883 367.747 221.136 366.156 223.977C364.565 226.78 363.751 229.905 363.713 233.352V247.614C363.713 251.932 364.509 255.663 366.099 258.807C367.728 261.951 370.02 264.375 372.974 266.08C375.929 267.784 379.433 268.636 383.486 268.636C386.175 268.636 388.637 268.258 390.872 267.5C393.107 266.742 395.02 265.606 396.611 264.091C398.202 262.576 399.414 260.72 400.247 258.523L422.634 260C421.497 265.379 419.168 270.076 415.645 274.091C412.16 278.068 407.652 281.174 402.122 283.409C396.63 285.606 390.285 286.705 383.088 286.705ZM502.52 202.102C502.065 197.519 500.115 193.958 496.668 191.42C493.221 188.883 488.543 187.614 482.634 187.614C478.618 187.614 475.228 188.182 472.463 189.318C469.698 190.417 467.577 191.951 466.099 193.92C464.66 195.89 463.94 198.125 463.94 200.625C463.865 202.708 464.3 204.527 465.247 206.08C466.232 207.633 467.577 208.977 469.281 210.114C470.986 211.212 472.955 212.178 475.19 213.011C477.425 213.807 479.812 214.489 482.349 215.057L492.804 217.557C497.88 218.693 502.539 220.208 506.781 222.102C511.024 223.996 514.698 226.326 517.804 229.091C520.91 231.856 523.315 235.114 525.02 238.864C526.762 242.614 527.652 246.913 527.69 251.761C527.652 258.883 525.834 265.057 522.236 270.284C518.675 275.473 513.524 279.508 506.781 282.386C500.077 285.227 491.99 286.648 482.52 286.648C473.126 286.648 464.944 285.208 457.974 282.33C451.043 279.451 445.626 275.189 441.724 269.545C437.861 263.864 435.834 256.837 435.645 248.466H459.452C459.717 252.367 460.834 255.625 462.804 258.239C464.812 260.814 467.482 262.765 470.815 264.091C474.187 265.379 477.993 266.023 482.236 266.023C486.402 266.023 490.02 265.417 493.088 264.205C496.194 262.992 498.599 261.307 500.304 259.148C502.009 256.989 502.861 254.508 502.861 251.705C502.861 249.091 502.084 246.894 500.531 245.114C499.016 243.333 496.781 241.818 493.827 240.568C490.91 239.318 487.33 238.182 483.088 237.159L470.418 233.977C460.607 231.591 452.861 227.86 447.179 222.784C441.497 217.708 438.675 210.871 438.713 202.273C438.675 195.227 440.55 189.072 444.338 183.807C448.164 178.542 453.41 174.432 460.077 171.477C466.743 168.523 474.319 167.045 482.804 167.045C491.44 167.045 498.978 168.523 505.418 171.477C511.895 174.432 516.933 178.542 520.531 183.807C524.13 189.072 525.986 195.17 526.099 202.102H502.52ZM539.807 188.92V168.636H635.375V188.92H599.75V285H575.432V188.92H539.807ZM677.435 286.705C668.609 286.705 660.976 284.83 654.537 281.08C648.135 277.292 643.192 272.027 639.707 265.284C636.223 258.504 634.48 250.644 634.48 241.705C634.48 232.689 636.223 224.811 639.707 218.068C643.192 211.288 648.135 206.023 654.537 202.273C660.976 198.485 668.609 196.591 677.435 196.591C686.26 196.591 693.874 198.485 700.276 202.273C706.715 206.023 711.677 211.288 715.162 218.068C718.647 224.811 720.389 232.689 720.389 241.705C720.389 250.644 718.647 258.504 715.162 265.284C711.677 272.027 706.715 277.292 700.276 281.08C693.874 284.83 686.26 286.705 677.435 286.705ZM677.548 267.955C681.563 267.955 684.916 266.818 687.605 264.545C690.295 262.235 692.321 259.091 693.685 255.114C695.086 251.136 695.787 246.61 695.787 241.534C695.787 236.458 695.086 231.932 693.685 227.955C692.321 223.977 690.295 220.833 687.605 218.523C684.916 216.212 681.563 215.057 677.548 215.057C673.495 215.057 670.086 216.212 667.321 218.523C664.594 220.833 662.529 223.977 661.128 227.955C659.764 231.932 659.082 236.458 659.082 241.534C659.082 246.61 659.764 251.136 661.128 255.114C662.529 259.091 664.594 262.235 667.321 264.545C670.086 266.818 673.495 267.955 677.548 267.955ZM736.582 285V168.636H782.491C791.279 168.636 798.779 170.208 804.991 173.352C811.241 176.458 815.995 180.871 819.253 186.591C822.548 192.273 824.196 198.958 824.196 206.648C824.196 214.375 822.529 221.023 819.196 226.591C815.863 232.121 811.033 236.364 804.707 239.318C798.42 242.273 790.806 243.75 781.866 243.75H751.128V223.977H777.889C782.586 223.977 786.488 223.333 789.594 222.045C792.7 220.758 795.01 218.826 796.526 216.25C798.079 213.674 798.855 210.473 798.855 206.648C798.855 202.784 798.079 199.527 796.526 196.875C795.01 194.223 792.681 192.216 789.537 190.852C786.431 189.451 782.51 188.75 777.776 188.75H761.185V285H736.582ZM799.423 232.045L828.344 285H801.185L772.889 232.045H799.423Z" fill="#2E1065"/>
</svg>
