<svg width="72" height="72" viewBox="0 0 72 72" fill="none" xmlns="http://www.w3.org/2000/svg">
<path d="M36.1125 10.0125H35.8875C7.7625 10.0125 2.25 19.9125 2.25 35.4375L3.2625 46.0125H68.85L69.8625 35.4375C69.75 19.9125 64.2375 10.0125 36.1125 10.0125Z" fill="#2E1065"/>
<path d="M65.8125 41.4C55.575 37.35 63.5625 26.2125 63.9 23.9625C63.9 23.9625 61.5375 2.25 36 2.25C10.4625 2.25 8.09999 23.9625 8.09999 23.9625C8.43749 26.2125 16.5375 37.35 6.18749 41.4C6.18749 41.4 2.36249 40.95 2.36249 45.5625C2.36249 51.075 6.29999 50.175 6.29999 50.175C6.29999 58.6125 14.625 69.75 36 69.75C57.375 69.75 65.7 58.6125 65.7 50.175C65.7 50.175 69.6375 51.075 69.6375 45.5625C69.6375 40.95 65.8125 41.4 65.8125 41.4Z" fill="#FED0AC"/>
<path d="M45.7875 59.5125C46.0125 59.5125 46.125 58.5 46.125 58.05C46.125 55.125 41.625 52.65 36 52.65C30.375 52.65 25.875 55.2375 25.875 58.1625C25.875 58.5 25.9875 59.5125 26.1 59.5125H45.7875Z" fill="#2E1065"/>
<path d="M20.025 44.2124L19.6875 40.8374C20.5875 40.7249 21.825 40.4999 23.175 40.2749C29.8125 39.0374 40.8375 36.8999 52.875 40.9499L51.75 44.0999C40.6125 40.2749 30.15 42.2999 23.85 43.5374C22.275 43.8749 20.925 44.0999 20.025 44.2124Z" fill="#454749"/>
<path d="M22.1625 52.7625C27.7544 52.7625 32.2875 48.2293 32.2875 42.6375C32.2875 37.0456 27.7544 32.5125 22.1625 32.5125C16.5706 32.5125 12.0375 37.0456 12.0375 42.6375C12.0375 48.2293 16.5706 52.7625 22.1625 52.7625Z" fill="#454749"/>
<path d="M22.1625 49.3875C25.8904 49.3875 28.9125 46.3654 28.9125 42.6375C28.9125 38.9095 25.8904 35.8875 22.1625 35.8875C18.4346 35.8875 15.4125 38.9095 15.4125 42.6375C15.4125 46.3654 18.4346 49.3875 22.1625 49.3875Z" fill="#B4D7EE"/>
<path d="M49.8375 52.7625C55.4294 52.7625 59.9625 48.2293 59.9625 42.6375C59.9625 37.0456 55.4294 32.5125 49.8375 32.5125C44.2456 32.5125 39.7125 37.0456 39.7125 42.6375C39.7125 48.2293 44.2456 52.7625 49.8375 52.7625Z" fill="#454749"/>
<path d="M49.8375 49.3875C53.5654 49.3875 56.5875 46.3654 56.5875 42.6375C56.5875 38.9095 53.5654 35.8875 49.8375 35.8875C46.1096 35.8875 43.0875 38.9095 43.0875 42.6375C43.0875 46.3654 46.1096 49.3875 49.8375 49.3875Z" fill="#B4D7EE"/>
</svg>
